<?xml version="1.0" encoding="utf-8"?>
<!-- Generator: Adobe Illustrator 23.1.0, SVG Export Plug-In . SVG Version: 6.00 Build 0)  -->
<svg version="1.1" id="Слой_1" xmlns="http://www.w3.org/2000/svg" xmlns:xlink="http://www.w3.org/1999/xlink" x="0px" y="0px"
	 viewBox="0 0 1080 1920" style="enable-background:new 0 0 1080 1920;" xml:space="preserve">
<style type="text/css">
	.st0{fill:#FFFFFF;}
	.st1{display:none;}
	.st2{display:inline;}
</style>
<g>
	<circle cx="520" cy="1406.03" r="128.17"/>
	<path class="st0" d="M488.03,1470.03h-2c-6.6,0-12-5.4-12-12v-104c0-6.6,5.4-12,12-12h2c6.6,0,12,5.4,12,12v104
		C500.03,1464.63,494.63,1470.03,488.03,1470.03z"/>
	<path class="st0" d="M560.03,1470.03h-2c-6.6,0-12-5.4-12-12v-104c0-6.6,5.4-12,12-12h2c6.6,0,12,5.4,12,12v104
		C572.03,1464.63,566.63,1470.03,560.03,1470.03z"/>
</g>
<g class="st1">
	<circle class="st2" cx="523.03" cy="1087.71" r="128.17"/>
	<g class="st2">
		<path class="st0" d="M504,1138h-2c-6.6,0-12-5.4-12-12v-75c0-6.6,5.4-12,12-12h2c6.6,0,12,5.4,12,12v75
			C516,1132.6,510.6,1138,504,1138z"/>
		<path class="st0" d="M589,1124h-2c-6.6,0-12-5.4-12-12v-47c0-6.6,5.4-12,12-12h2c6.6,0,12,5.4,12,12v47
			C601,1118.6,595.6,1124,589,1124z"/>
		<path class="st0" d="M547,1153h-2c-6.6,0-12-5.4-12-12v-106c0-6.6,5.4-12,12-12h2c6.6,0,12,5.4,12,12v106
			C559,1147.6,553.6,1153,547,1153z"/>
		<path class="st0" d="M459,1150h-2c-6.6,0-12-5.4-12-12v-104c0-6.6,5.4-12,12-12h2c6.6,0,12,5.4,12,12v104
			C471,1144.6,465.6,1150,459,1150z"/>
	</g>
</g>
</svg>
