<?xml version="1.0" encoding="utf-8"?>
<!-- Generator: Adobe Illustrator 23.1.0, SVG Export Plug-In . SVG Version: 6.00 Build 0)  -->
<svg version="1.1" id="Слой_1" xmlns="http://www.w3.org/2000/svg" xmlns:xlink="http://www.w3.org/1999/xlink" x="0px" y="0px"
	 viewBox="0 0 100 100" style="enable-background:new 0 0 100 100;" xml:space="preserve">
<g>
	<path d="M50,1.8C23.21,1.8,1.5,23.52,1.5,50.3S23.21,98.8,50,98.8c26.79,0,48.5-21.72,48.5-48.5S76.79,1.8,50,1.8z M30.31,69.33
		c0,2.5-2.04,4.54-4.54,4.54h-0.76c-2.5,0-4.54-2.04-4.54-4.54V29.98c0-2.5,2.04-4.54,4.54-4.54h0.76c2.5,0,4.54,2.04,4.54,4.54
		V69.33z M47.34,64.79c0,2.5-2.04,4.54-4.54,4.54h-0.76c-2.5,0-4.54-2.04-4.54-4.54V36.41c0-2.5,2.04-4.54,4.54-4.54h0.76
		c2.5,0,4.54,2.04,4.54,4.54V64.79z M63.61,70.47c0,2.5-2.04,4.54-4.54,4.54h-0.76c-2.5,0-4.54-2.04-4.54-4.54V30.36
		c0-2.5,2.04-4.54,4.54-4.54h0.76c2.5,0,4.54,2.04,4.54,4.54V70.47z M79.5,59.49c0,2.5-2.04,4.54-4.54,4.54h-0.76
		c-2.5,0-4.54-2.04-4.54-4.54V41.71c0-2.5,2.04-4.54,4.54-4.54h0.76c2.5,0,4.54,2.04,4.54,4.54V59.49z"/>
</g>
</svg>
